REM DIRINDEX 1\5,1\2\6,1\2\7,1\3\8,1\3\9,1\4\10,1\4\11,1\4\12
REM DIRNAME cjc026,folder01,folder02,folder03,folder04,folder05,folder06,folder07,folder08,folder09,folder10,folder11
TITLE ""
FILE "EJ_DB3000_5th_6C_47.mp3" MP3
  TRACK 01 AUDIO
    TITLE "0:"
    INDEX 01 00:00:00
  TRACK 02 AUDIO
    TITLE "9:cjc026_06819"
    INDEX 01 00:00:08
  TRACK 03 AUDIO
    TITLE "0:"
    INDEX 01 00:02:01
  TRACK 04 AUDIO
    TITLE "8:cjc026_06820"
    INDEX 01 00:02:33
  TRACK 05 AUDIO
    TITLE "0:"
    INDEX 01 00:04:07
  TRACK 06 AUDIO
    TITLE "9:cjc026_06821"
    INDEX 01 00:04:40
  TRACK 07 AUDIO
    TITLE "0:"
    INDEX 01 00:07:01
  TRACK 08 AUDIO
    TITLE "8:cjc026_06822"
    INDEX 01 00:07:33
  TRACK 09 AUDIO
    TITLE "0:"
    INDEX 01 00:09:35
  TRACK 10 AUDIO
    TITLE "9:cjc026_06823"
    INDEX 01 00:09:67
  TRACK 11 AUDIO
    TITLE "0:"
    INDEX 01 00:11:22
  TRACK 12 AUDIO
    TITLE "8:cjc026_06824"
    INDEX 01 00:11:55
  TRACK 13 AUDIO
    TITLE "0:"
    INDEX 01 00:13:69
  TRACK 14 AUDIO
    TITLE "9:cjc026_06825"
    INDEX 01 00:14:27
  TRACK 15 AUDIO
    TITLE "0:"
    INDEX 01 00:15:60
  TRACK 16 AUDIO
    TITLE "8:cjc026_06826"
    INDEX 01 00:16:17
  TRACK 17 AUDIO
    TITLE "0:"
    INDEX 01 00:17:64
  TRACK 18 AUDIO
    TITLE "9:cjc026_06827"
    INDEX 01 00:18:24
  TRACK 19 AUDIO
    TITLE "0:"
    INDEX 01 00:19:65
  TRACK 20 AUDIO
    TITLE "8:cjc026_06828"
    INDEX 01 00:20:22
  TRACK 21 AUDIO
    TITLE "0:"
    INDEX 01 00:21:55
  TRACK 22 AUDIO
    TITLE "9:cjc026_06829"
    INDEX 01 00:22:15
  TRACK 23 AUDIO
    TITLE "0:"
    INDEX 01 00:23:40
  TRACK 24 AUDIO
    TITLE "8:cjc026_06830"
    INDEX 01 00:23:73
  TRACK 25 AUDIO
    TITLE "0:"
    INDEX 01 00:25:31
  TRACK 26 AUDIO
    TITLE "9:cjc026_06831"
    INDEX 01 00:25:63
  TRACK 27 AUDIO
    TITLE "0:"
    INDEX 01 00:27:13
  TRACK 28 AUDIO
    TITLE "8:cjc026_06832"
    INDEX 01 00:27:48
  TRACK 29 AUDIO
    TITLE "0:"
    INDEX 01 00:29:25
  TRACK 30 AUDIO
    TITLE "9:cjc026_06833"
    INDEX 01 00:29:60
  TRACK 31 AUDIO
    TITLE "0:"
    INDEX 01 00:31:37
  TRACK 32 AUDIO
    TITLE "8:cjc026_06834"
    INDEX 01 00:31:72
  TRACK 33 AUDIO
    TITLE "0:"
    INDEX 01 00:33:38
  TRACK 34 AUDIO
    TITLE "9:cjc026_06835"
    INDEX 01 00:33:71
  TRACK 35 AUDIO
    TITLE "0:"
    INDEX 01 00:35:37
  TRACK 36 AUDIO
    TITLE "8:cjc026_06836"
    INDEX 01 00:35:72
  TRACK 37 AUDIO
    TITLE "0:"
    INDEX 01 00:37:51
  TRACK 38 AUDIO
    TITLE "9:cjc026_06837"
    INDEX 01 00:38:09
  TRACK 39 AUDIO
    TITLE "0:"
    INDEX 01 00:39:42
  TRACK 40 AUDIO
    TITLE "8:cjc026_06838"
    INDEX 01 00:39:74
  TRACK 41 AUDIO
    TITLE "0:"
    INDEX 01 00:41:48
  TRACK 42 AUDIO
    TITLE "9:cjc026_06839"
    INDEX 01 00:42:03
  TRACK 43 AUDIO
    TITLE "0:"
    INDEX 01 00:43:01
  TRACK 44 AUDIO
    TITLE "8:cjc026_06840"
    INDEX 01 00:43:44
  TRACK 45 AUDIO
    TITLE "0:"
    INDEX 01 00:45:05
  TRACK 46 AUDIO
    TITLE "9:cjc026_06841"
    INDEX 01 00:45:37
  TRACK 47 AUDIO
    TITLE "0:"
    INDEX 01 00:47:06
  TRACK 48 AUDIO
    TITLE "8:cjc026_06842"
    INDEX 01 00:47:39
  TRACK 49 AUDIO
    TITLE "0:"
    INDEX 01 00:48:61
  TRACK 50 AUDIO
    TITLE "9:cjc026_06843"
    INDEX 01 00:49:15
  TRACK 51 AUDIO
    TITLE "0:"
    INDEX 01 00:50:70
  TRACK 52 AUDIO
    TITLE "8:cjc026_06844"
    INDEX 01 00:51:25
  TRACK 53 AUDIO
    TITLE "0:"
    INDEX 01 00:53:23
  TRACK 54 AUDIO
    TITLE "9:cjc026_06845"
    INDEX 01 00:53:56
  TRACK 55 AUDIO
    TITLE "0:"
    INDEX 01 00:55:22
  TRACK 56 AUDIO
    TITLE "8:cjc026_06846"
    INDEX 01 00:55:57
  TRACK 57 AUDIO
    TITLE "0:"
    INDEX 01 00:57:07
  TRACK 58 AUDIO
    TITLE "9:cjc026_06847"
    INDEX 01 00:57:39
  TRACK 59 AUDIO
    TITLE "0:"
    INDEX 01 00:58:59
  TRACK 60 AUDIO
    TITLE "8:cjc026_06848"
    INDEX 01 00:59:19
  TRACK 61 AUDIO
    TITLE "0:"
    INDEX 01 01:00:38
  TRACK 62 AUDIO
    TITLE "9:cjc026_06849"
    INDEX 01 01:00:71
  TRACK 63 AUDIO
    TITLE "0:"
    INDEX 01 01:02:31
  TRACK 64 AUDIO
    TITLE "8:cjc026_06850"
    INDEX 01 01:02:64
  TRACK 65 AUDIO
    TITLE "0:"
    INDEX 01 01:04:27
